<svg xmlns="http://www.w3.org/2000/svg" viewBox="10 0 80 100">
 <path d="m23.238 14.203c0.79688 0 1.4375-0.64453 1.4375-1.4375v-2.5859c0-0.79688-0.64453-1.4375-1.4375-1.4375-0.79688 0-1.4375 0.64453-1.4375 1.4375v2.5859c-0.003906 0.79688 0.64062 1.4375 1.4375 1.4375z"/>
 <path d="m21.797 21.59c0 0.79688 0.64453 1.4375 1.4375 1.4375 0.79688 0 1.4375-0.64453 1.4375-1.4375v-2.4961c0-0.79688-0.64453-1.4375-1.4375-1.4375-0.79688 0-1.4375 0.64453-1.4375 1.4375z"/>
 <path d="m26.082 17.324h2.8633c0.79688 0 1.4375-0.64453 1.4375-1.4375 0-0.79688-0.64453-1.4375-1.4375-1.4375h-2.8633c-0.79688 0-1.4375 0.64453-1.4375 1.4375-0.003906 0.79297 0.64062 1.4375 1.4375 1.4375z"/>
 <path d="m20.285 14.445h-2.7578c-0.79688 0-1.4375 0.64453-1.4375 1.4375 0 0.79688 0.64453 1.4375 1.4375 1.4375h2.7578c0.79688 0 1.4375-0.64453 1.4375-1.4375 0.003906-0.79297-0.64062-1.4375-1.4375-1.4375z"/>
 <path d="m79.156 15.406c0.79688 0 1.4375-0.64453 1.4375-1.4375v-2.5859c0-0.79687-0.64453-1.4375-1.4375-1.4375-0.79688 0-1.4375 0.64453-1.4375 1.4375v2.5859c0 0.79297 0.64453 1.4375 1.4375 1.4375z"/>
 <path d="m77.719 22.793c0 0.79688 0.64453 1.4375 1.4375 1.4375 0.79688 0 1.4375-0.64453 1.4375-1.4375v-2.4961c0-0.79688-0.64453-1.4375-1.4375-1.4375-0.79688 0-1.4375 0.64453-1.4375 1.4375z"/>
 <path d="m82 18.527h2.8633c0.79688 0 1.4375-0.64453 1.4375-1.4375 0-0.79688-0.64453-1.4375-1.4375-1.4375l-2.8633-0.003906c-0.79688 0-1.4375 0.64453-1.4375 1.4375 0 0.79687 0.64062 1.4414 1.4375 1.4414z"/>
 <path d="m72.012 17.086c0 0.79687 0.64453 1.4375 1.4375 1.4375h2.7539c0.79688 0 1.4375-0.64453 1.4375-1.4375 0-0.79688-0.64453-1.4375-1.4375-1.4375h-2.7539c-0.79297 0-1.4375 0.64062-1.4375 1.4375z"/>
 <path d="m48.27 64.938v2.5859c0 0.79687 0.64453 1.4375 1.4375 1.4375 0.79688 0 1.4375-0.64453 1.4375-1.4375v-2.5859c0-0.79688-0.64453-1.4375-1.4375-1.4375-0.79297-0.003906-1.4375 0.64062-1.4375 1.4375z"/>
 <path d="m49.711 72.414c-0.79688 0-1.4375 0.64453-1.4375 1.4375v2.4961c0 0.79688 0.64453 1.4375 1.4375 1.4375 0.79687 0 1.4375-0.64453 1.4375-1.4375v-2.4961c0-0.79297-0.64453-1.4375-1.4375-1.4375z"/>
 <path d="m55.414 69.203h-2.8633c-0.79688 0-1.4375 0.64453-1.4375 1.4375 0 0.79688 0.64453 1.4375 1.4375 1.4375h2.8633c0.79688 0 1.4375-0.64453 1.4375-1.4375 0.003907-0.79297-0.64062-1.4375-1.4375-1.4375z"/>
 <path d="m46.758 69.203h-2.7578c-0.79688 0-1.4375 0.64453-1.4375 1.4375 0 0.79688 0.64453 1.4375 1.4375 1.4375h2.7578c0.79688 0 1.4375-0.64453 1.4375-1.4375 0.003907-0.79297-0.64062-1.4375-1.4375-1.4375z"/>
 <path d="m92.465 87.766-13.18-2.5547-5.0859-18.051c2.8203-1.1289 5.1562-3.1641 6.6641-5.8555 1.7461-3.1094 2.1719-6.7148 1.1875-10.207l-7.9727-24.238c-0.24219-0.73047-1.0156-1.1445-1.7578-0.9375l-20.801 5.8594c-0.74219 0.21094-1.1875 0.96484-1.0117 1.7148l5.8594 24.898c0.96875 3.4336 3.2148 6.2852 6.3242 8.0273 2.0195 1.1328 4.2539 1.7109 6.5078 1.7109 0.74219 0 1.4883-0.070312 2.2305-0.19531l5.0898 18.062-9.7148 9.0039c-0.48828 0.45312-0.60156 1.1797-0.27734 1.7617 0.25391 0.46094 0.73828 0.73438 1.25 0.73438 0.12891 0 0.26172-0.015625 0.39062-0.054688l24.414-6.8828c0.64062-0.17969 1.0742-0.78125 1.0469-1.4453-0.03125-0.66797-0.51172-1.2266-1.1641-1.3516zm-20.691-58.695 6.3555 19.312c-2.8984 1.9102-5.5391 2.6172-7.8594 2.0664-2.7852-0.66016-5.2852-3.1172-7.4375-7.2969-2.6367-5.1289-6.7969-6.625-8.7578-7.0547l-0.44922-1.9102zm-12.621 28.605-4.3164-18.348c1.6133 0.64453 3.8516 2.0547 5.4375 5.1328 2.5547 4.9648 5.6953 7.9219 9.3359 8.7852 0.73828 0.17578 1.4961 0.26172 2.2617 0.26172 2.2812 0 4.6836-0.78125 7.1875-2.3086l0.24219 0.73828c0.75781 2.6914 0.42188 5.5195-0.94531 7.9609-1.3672 2.4414-3.6055 4.2031-6.2969 4.9609-5.5547 1.5664-11.355-1.6836-12.906-7.1836zm13.988 35.375 5.4414-5.0469 7.3828 1.4297z"/>
 <path d="m49.496 33.5c0.17578-0.75-0.26953-1.5078-1.0117-1.7148l-20.801-5.8594c-0.74609-0.21094-1.5156 0.20703-1.7578 0.9375l-7.9922 24.297c-0.96484 3.4336-0.53906 7.0352 1.207 10.148 1.5078 2.6875 3.8438 4.7266 6.6641 5.8555l-5.0859 18.051-13.184 2.5508c-0.65234 0.125-1.1367 0.6875-1.1641 1.3516-0.027344 0.66797 0.40625 1.2656 1.0469 1.4453l24.414 6.8828c0.12891 0.039063 0.26172 0.054688 0.39062 0.054688 0.51172 0 0.99609-0.27344 1.2539-0.73438 0.32422-0.58203 0.21094-1.3086-0.27734-1.7617l-9.7148-9.0039 5.0898-18.059c0.74219 0.125 1.4883 0.19531 2.2305 0.19531 2.2539 0 4.4844-0.57812 6.5078-1.7109 3.1094-1.7422 5.3555-4.5938 6.3398-8.0859zm-21.27-4.4297 18.148 5.1133-0.44922 1.9102c-1.9648 0.43359-6.1211 1.9297-8.7578 7.0547-2.1523 4.1836-4.6523 6.6367-7.4375 7.2969-2.3242 0.55078-4.9609-0.15625-7.8555-2.0625zm-14.191 60.367 7.3828-1.4297 5.4414 5.0469zm13.914-24.578h-0.003907c-2.6914-0.75781-4.9258-2.5195-6.2969-4.957-1.3672-2.4414-1.7031-5.2656-0.96094-7.8984l0.26172-0.79688c2.5 1.5273 4.9062 2.3086 7.1836 2.3086 0.76953 0 1.5234-0.089844 2.2617-0.26172 3.6406-0.86328 6.7812-3.8203 9.3359-8.7852 1.5859-3.0859 3.8203-4.4922 5.4375-5.1367l-4.3047 18.285c-1.5625 5.5586-7.3594 8.8047-12.914 7.2422z"/>
 <path d="m53.441 27.418c0.79688 0 1.4375-0.64453 1.4375-1.4375 0-6.3867 3.5977-12.285 8.5586-14.031 0.75-0.26562 1.1445-1.0859 0.87891-1.8359s-1.082-1.1445-1.8359-0.87891c-6.0742 2.1367-10.48 9.1797-10.48 16.746 0 0.79297 0.64453 1.4375 1.4414 1.4375z"/>
 <path d="m38.07 9.2344c-0.75391-0.26562-1.5703 0.12891-1.8359 0.87891s0.12891 1.5703 0.87891 1.8359c4.9609 1.7461 8.5586 7.6445 8.5586 14.031 0 0.79688 0.64453 1.4375 1.4375 1.4375 0.79688 0 1.4375-0.64453 1.4375-1.4375 0.003906-7.5703-4.4062-14.609-10.477-16.746z"/>
 <path d="m53.004 2.6133c-0.73047-0.30859-1.5742 0.027344-1.8906 0.75781-1.6914 3.957-2.6484 8.1445-2.8438 12.441-0.035156 0.79297 0.57812 1.4648 1.375 1.5039h0.066407c0.76562 0 1.4023-0.60156 1.4375-1.375 0.17969-3.9531 1.0586-7.8008 2.6133-11.438 0.3125-0.73047-0.027344-1.5742-0.75781-1.8906z"/>
</svg>
