<svg id="Group_7" data-name="Group 7" xmlns="http://www.w3.org/2000/svg" width="65.753" height="70.806" viewBox="0 0 65.753 70.806">
  <path id="Fill_1" data-name="Fill 1" d="M0,38.569V8.527A8.6,8.6,0,0,1,7.508,0H65.753V38.569c0,19.991-11.6,32.237-33.152,32.237C12.248,70.806,0,58.74,0,38.569" fill="#00a9e0"/>
  <path id="Fill_3" data-name="Fill 3" d="M8.672,23.513H0V2.683A3.08,3.08,0,0,1,3.048,0H8.672A11.565,11.565,0,0,1,17.14,3.1,11.853,11.853,0,0,1,20.2,11.657C20.2,19.191,16,23.513,8.672,23.513ZM6.125,5.268V18.243H7.586c4.669-.1,6.488-1.953,6.488-6.616,0-4.22-2.183-6.359-6.488-6.359Z" transform="translate(40.717 23.682)" fill="#fff"/>
  <path id="Fill_5" data-name="Fill 5" d="M0,2.684V23.512H16.4V18.244H6.125V13.765h7.238V9.023H6.125V4.908H16.4V0H3.051A3.076,3.076,0,0,0,0,2.684" transform="translate(22.613 23.681)" fill="#fff"/>
  <path id="Fill_7" data-name="Fill 7" d="M10.094,2.623V15.3c0,2.218-.771,2.989-2.153,2.989a2.109,2.109,0,0,1-2.315-2.346V13.823H0v1c0,5.112,1.962,8.615,8.037,8.615,5.4,0,8.033-2.6,8.033-7.747V0h-3a3,3,0,0,0-2.977,2.623" transform="translate(4.837 23.761)" fill="#fff"/>
</svg>
