<?xml version="1.0" encoding="UTF-8" standalone="no"?>
<svg
   xmlns:dc="http://purl.org/dc/elements/1.1/"
   xmlns:cc="http://creativecommons.org/ns#"
   xmlns:rdf="http://www.w3.org/1999/02/22-rdf-syntax-ns#"
   xmlns:svg="http://www.w3.org/2000/svg"
   xmlns="http://www.w3.org/2000/svg"
   xmlns:sodipodi="http://sodipodi.sourceforge.net/DTD/sodipodi-0.dtd"
   xmlns:inkscape="http://www.inkscape.org/namespaces/inkscape"
   id="Layer_1"
   version="1.1"
   viewBox="0 0 128 50"
   sodipodi:docname="NAMI logo.svg"
   width="128"
   height="50"
   inkscape:version="1.0.2-2 (e86c870879, 2021-01-15)">
  <metadata
     id="metadata318">
    <rdf:RDF>
      <cc:Work
         rdf:about="">
        <dc:format>image/svg+xml</dc:format>
        <dc:type
           rdf:resource="http://purl.org/dc/dcmitype/StillImage" />
        <dc:title></dc:title>
      </cc:Work>
    </rdf:RDF>
  </metadata>
  <sodipodi:namedview
     pagecolor="#ffffff"
     bordercolor="#666666"
     borderopacity="1"
     objecttolerance="10"
     gridtolerance="10"
     guidetolerance="10"
     inkscape:pageopacity="0"
     inkscape:pageshadow="2"
     inkscape:window-width="1920"
     inkscape:window-height="991"
     id="namedview316"
     showgrid="false"
     inkscape:zoom="9.625"
     inkscape:cx="64"
     inkscape:cy="25"
     inkscape:window-x="-9"
     inkscape:window-y="-9"
     inkscape:window-maximized="1"
     inkscape:current-layer="Layer_1" />
  <!-- Generator: Adobe Illustrator 29.7.1, SVG Export Plug-In . SVG Version: 2.1.1 Build 8)  -->
  <defs
     id="defs167">
    <style
       id="style165">
      .st0 {
        fill: none;
      }

      .st1 {
        fill: #00539f;
      }
    </style>
  </defs>
  <g
     id="g393">
    <g
       id="g311">
      <path
         class="st1"
         d="m 38.99,12.59 c 2.73,6.67 1.45,15.19 -3.21,20.25 -4.74,5.71 -13.26,8.2 -20.73,5.87 C 8.46,36.86 3.32,31.24 1.55,24.89 -0.31,16.76 2.66,8.89 9.41,4.31 14.4,0.69 22.11,-0.19 27.98,2.06 33.12,4.23 36.5,7.77 38.99,12.59 Z M 21.31,2.7 c -5.87,0.48 -10.93,3.94 -13.42,9.32 -2.33,5.95 -1.45,13.9 3.21,18.24 1.69,1.45 3.13,2.97 4.98,3.45 -3.7,-3.86 -6.43,-8.76 -6.35,-14.54 0.4,-6.43 4.34,-12.78 10.2,-15.27 0.48,-0.08 0.72,0.16 0.56,0.56 -4.26,2.97 -6.91,7.47 -7.87,12.7 -0.88,6.75 2.09,12.86 7.23,16.71 -3.37,-4.66 -4.9,-12.45 -1.53,-17.68 2.17,-3.86 6.03,-7.15 10.29,-7.63 V 9.2 c -3.94,2.49 -7.07,5.46 -8.6,9.97 -1.85,5.06 -0.56,11.49 3.05,15.43 -1.69,-4.42 -1.29,-10.04 1.53,-13.82 1.61,-2.01 3.7,-4.82 6.35,-4.98 v 0.56 c -1.85,1.45 -3.37,3.62 -4.66,5.63 -1.93,4.1 -2.17,10.37 0.64,14.06 1.12,0.56 2.09,-0.4 3.05,-0.88 0.4,-1.45 -0.81,-2.73 -0.48,-4.42 1.69,-2.65 2.41,-6.03 1.61,-9.24 l 0.32,-0.32 c 0.72,0.24 1.12,0.88 1.53,1.37 1.12,1.69 1.69,4.34 0.56,6.19 -0.56,1.53 -2.65,3.14 -1.45,4.82 2.49,-1.61 4.18,-4.18 5.3,-6.75 C 39.61,21.84 38.81,14.93 35.83,10.67 32.29,5.85 27.39,2.79 21.28,2.71 Z"
         id="path169" />
      <g
         id="g179">
        <path
           class="st1"
           d="M 63.9,36.31 H 57.66 V 11.78 c 0,-0.92 -0.25,-1.61 -0.74,-2.07 -0.49,-0.47 -1.27,-0.7 -2.32,-0.7 h -1.13 v 27.3 h -6.24 v -31 h 4.95 l 0.68,1.38 c 0.56,-0.48 1.25,-0.83 2.07,-1.05 0.81,-0.22 1.71,-0.33 2.68,-0.33 1.97,0 3.52,0.55 4.63,1.65 1.11,1.1 1.66,2.63 1.66,4.57 V 36.3 Z"
           id="path171" />
        <path
           class="st1"
           d="m 74.39,15.53 v -3.36 c 0,-1.3 0.18,-2.22 0.53,-2.74 0.36,-0.52 1.01,-0.79 1.98,-0.79 0.88,0 1.51,0.27 1.88,0.81 0.37,0.54 0.56,1.44 0.56,2.72 v 3.36 z m 11.19,-2.08 c 0,-2.92 -0.69,-5.07 -2.07,-6.43 -1.38,-1.36 -3.6,-2.04 -6.64,-2.04 -2.84,0 -5,0.72 -6.49,2.18 -1.49,1.45 -2.23,3.55 -2.23,6.29 v 22.86 h 6.24 V 19.64 h 4.95 v 16.67 h 6.24 z"
           id="path173" />
        <path
           class="st1"
           d="m 116.02,36.31 h -6.24 V 10.66 c 0,-0.55 -0.15,-1 -0.46,-1.34 -0.3,-0.34 -0.73,-0.51 -1.27,-0.51 h -1.98 v 27.5 H 99.91 V 10.66 c 0,-0.55 -0.15,-1 -0.45,-1.34 -0.3,-0.34 -0.72,-0.51 -1.27,-0.51 h -1.98 v 27.5 h -6.24 v -31 h 4.99 l 0.64,1.38 c 0.39,-0.4 1.08,-0.74 2.07,-0.99 0.99,-0.26 1.94,-0.39 2.86,-0.39 1.1,0 2.02,0.14 2.79,0.41 0.76,0.28 1.34,0.66 1.74,1.17 0.59,-0.5 1.3,-0.89 2.13,-1.17 0.83,-0.28 1.68,-0.41 2.55,-0.41 1.92,0 3.45,0.52 4.58,1.57 1.13,1.05 1.7,2.53 1.7,4.45 z"
           id="path175" />
        <path
           class="st1"
           d="m 127,36.31 h -6.24 v -31 H 127 Z"
           id="path177" />
      </g>
      <g
         id="g309">
        <g
           id="g243">
          <path
             class="st1"
             d="m 1.37,43.31 h 1.24 l 2.26,3.99 v -3.99 h 1.1 v 5.73 H 4.79 L 2.47,44.98 v 4.06 h -1.1 z"
             id="path181" />
          <path
             class="st1"
             d="m 8.6,46.45 c 0.2,-0.03 0.35,-0.06 0.44,-0.1 0.16,-0.07 0.24,-0.17 0.24,-0.32 0,-0.17 -0.06,-0.29 -0.18,-0.36 -0.12,-0.07 -0.3,-0.1 -0.53,-0.1 -0.26,0 -0.45,0.06 -0.56,0.19 -0.08,0.1 -0.13,0.22 -0.16,0.39 H 6.78 C 6.8,45.79 6.91,45.49 7.09,45.25 7.38,44.88 7.88,44.7 8.6,44.7 c 0.46,0 0.87,0.09 1.23,0.27 0.36,0.18 0.54,0.52 0.54,1.04 v 1.95 c 0,0.14 0,0.3 0,0.49 0,0.15 0.03,0.25 0.07,0.3 0.04,0.05 0.09,0.1 0.16,0.13 v 0.16 H 9.4 C 9.37,48.95 9.34,48.87 9.33,48.8 9.32,48.73 9.31,48.64 9.3,48.54 9.15,48.71 8.97,48.85 8.77,48.96 8.53,49.1 8.26,49.17 7.96,49.17 7.58,49.17 7.26,49.06 7.01,48.84 6.76,48.62 6.64,48.31 6.64,47.9 c 0,-0.52 0.2,-0.9 0.6,-1.14 0.22,-0.13 0.54,-0.22 0.97,-0.27 l 0.38,-0.05 z m 0.67,0.51 C 9.2,47 9.13,47.04 9.06,47.07 8.99,47.1 8.89,47.12 8.77,47.15 L 8.52,47.2 c -0.23,0.04 -0.4,0.09 -0.51,0.15 -0.18,0.1 -0.27,0.26 -0.27,0.47 0,0.19 0.05,0.33 0.16,0.41 0.11,0.09 0.23,0.13 0.39,0.13 0.24,0 0.46,-0.07 0.67,-0.21 0.2,-0.14 0.31,-0.4 0.32,-0.77 v -0.42 z"
             id="path183" />
          <path
             class="st1"
             d="m 10.8,45.63 v -0.78 h 0.59 v -1.19 h 1.1 v 1.19 h 0.68 v 0.78 h -0.68 v 2.24 c 0,0.17 0.02,0.28 0.07,0.33 0.04,0.04 0.18,0.06 0.4,0.06 0.03,0 0.07,0 0.11,0 0.04,0 0.07,0 0.11,-0.01 v 0.83 H 12.65 C 12.13,49.11 11.77,49.02 11.58,48.82 11.46,48.69 11.39,48.5 11.39,48.23 V 45.62 H 10.8 Z"
             id="path185" />
          <path
             class="st1"
             d="m 14.89,44.3 h -1.1 v -1.02 h 1.1 z m -1.1,0.5 h 1.1 v 4.24 h -1.1 z"
             id="path187" />
          <path
             class="st1"
             d="m 19.41,48.51 c -0.36,0.44 -0.9,0.66 -1.63,0.66 -0.73,0 -1.27,-0.22 -1.63,-0.66 -0.36,-0.44 -0.54,-0.97 -0.54,-1.58 0,-0.61 0.18,-1.13 0.54,-1.58 0.36,-0.44 0.9,-0.67 1.63,-0.67 0.73,0 1.27,0.22 1.63,0.67 0.36,0.44 0.54,0.97 0.54,1.58 0,0.61 -0.18,1.14 -0.54,1.58 z M 18.53,47.9 c 0.17,-0.23 0.26,-0.55 0.26,-0.97 0,-0.42 -0.09,-0.75 -0.26,-0.97 -0.17,-0.23 -0.42,-0.34 -0.75,-0.34 -0.33,0 -0.58,0.11 -0.75,0.34 -0.17,0.23 -0.26,0.55 -0.26,0.97 0,0.42 0.09,0.75 0.26,0.97 0.18,0.23 0.43,0.34 0.75,0.34 0.32,0 0.58,-0.11 0.75,-0.34 z"
             id="path189" />
          <path
             class="st1"
             d="m 24.04,45.05 c 0.28,0.23 0.42,0.61 0.42,1.14 v 2.85 h -1.14 v -2.57 c 0,-0.22 -0.03,-0.39 -0.09,-0.51 -0.11,-0.22 -0.31,-0.33 -0.61,-0.33 -0.37,0 -0.62,0.16 -0.76,0.48 -0.07,0.17 -0.11,0.38 -0.11,0.64 v 2.29 h -1.1 v -4.23 h 1.06 v 0.62 c 0.14,-0.22 0.28,-0.38 0.4,-0.47 0.23,-0.17 0.51,-0.26 0.86,-0.26 0.44,0 0.79,0.12 1.07,0.35 z"
             id="path191" />
          <path
             class="st1"
             d="m 27.06,46.45 c 0.2,-0.03 0.35,-0.06 0.44,-0.1 0.16,-0.07 0.24,-0.17 0.24,-0.32 0,-0.17 -0.06,-0.29 -0.18,-0.36 -0.12,-0.07 -0.3,-0.1 -0.53,-0.1 -0.26,0 -0.45,0.06 -0.56,0.19 -0.08,0.1 -0.13,0.22 -0.16,0.39 h -1.07 c 0.02,-0.36 0.13,-0.66 0.31,-0.9 0.29,-0.37 0.79,-0.55 1.51,-0.55 0.46,0 0.87,0.09 1.23,0.27 0.36,0.18 0.54,0.52 0.54,1.04 v 1.95 c 0,0.14 0,0.3 0,0.49 0,0.15 0.03,0.25 0.07,0.3 0.04,0.05 0.09,0.1 0.16,0.13 v 0.16 h -1.2 c -0.03,-0.09 -0.06,-0.17 -0.07,-0.24 -0.01,-0.07 -0.02,-0.16 -0.03,-0.26 -0.15,0.17 -0.33,0.31 -0.53,0.42 -0.24,0.14 -0.51,0.21 -0.81,0.21 -0.38,0 -0.7,-0.11 -0.95,-0.33 -0.25,-0.22 -0.37,-0.53 -0.37,-0.94 0,-0.52 0.2,-0.9 0.6,-1.14 0.22,-0.13 0.54,-0.22 0.97,-0.27 l 0.38,-0.05 z m 0.68,0.51 c -0.07,0.04 -0.14,0.08 -0.21,0.11 -0.07,0.03 -0.17,0.05 -0.29,0.08 l -0.25,0.05 c -0.23,0.04 -0.4,0.09 -0.51,0.15 -0.18,0.1 -0.27,0.26 -0.27,0.47 0,0.19 0.05,0.33 0.16,0.41 0.11,0.09 0.23,0.13 0.39,0.13 0.24,0 0.46,-0.07 0.67,-0.21 0.2,-0.14 0.31,-0.4 0.32,-0.77 v -0.42 z"
             id="path193" />
          <path
             class="st1"
             d="m 30.81,49.04 h -1.1 v -5.72 h 1.1 z"
             id="path195" />
          <path
             class="st1"
             d="m 35.34,43.31 h 1.34 l 2.02,5.73 h -1.29 l -0.37,-1.17 h -2.11 l -0.38,1.17 h -1.24 l 2.04,-5.73 z m -0.08,3.57 h 1.46 L 36,44.62 Z"
             id="path197" />
          <path
             class="st1"
             d="m 40.36,49.04 h -1.1 v -5.72 h 1.1 z"
             id="path199" />
          <path
             class="st1"
             d="m 42.47,49.04 h -1.1 v -5.72 h 1.1 z"
             id="path201" />
          <path
             class="st1"
             d="m 44.57,44.3 h -1.1 v -1.02 h 1.1 z m -1.1,0.5 h 1.1 v 4.24 h -1.1 z"
             id="path203" />
          <path
             class="st1"
             d="m 47.25,46.45 c 0.2,-0.03 0.35,-0.06 0.44,-0.1 0.16,-0.07 0.24,-0.17 0.24,-0.32 0,-0.17 -0.06,-0.29 -0.18,-0.36 -0.12,-0.07 -0.3,-0.1 -0.53,-0.1 -0.26,0 -0.45,0.06 -0.56,0.19 -0.08,0.1 -0.13,0.22 -0.16,0.39 h -1.07 c 0.02,-0.36 0.13,-0.66 0.31,-0.9 0.29,-0.37 0.79,-0.55 1.51,-0.55 0.46,0 0.87,0.09 1.23,0.27 0.36,0.18 0.54,0.52 0.54,1.04 v 1.95 c 0,0.14 0,0.3 0,0.49 0,0.15 0.03,0.25 0.07,0.3 0.04,0.05 0.09,0.1 0.16,0.13 v 0.16 h -1.2 c -0.03,-0.09 -0.06,-0.17 -0.07,-0.24 -0.01,-0.07 -0.02,-0.16 -0.03,-0.26 -0.15,0.17 -0.33,0.31 -0.53,0.42 -0.24,0.14 -0.51,0.21 -0.81,0.21 -0.38,0 -0.7,-0.11 -0.95,-0.33 -0.25,-0.22 -0.37,-0.53 -0.37,-0.94 0,-0.52 0.2,-0.9 0.6,-1.14 0.22,-0.13 0.54,-0.22 0.97,-0.27 l 0.38,-0.05 z m 0.67,0.51 c -0.07,0.04 -0.14,0.08 -0.21,0.11 -0.07,0.03 -0.17,0.05 -0.29,0.08 l -0.25,0.05 c -0.23,0.04 -0.4,0.09 -0.51,0.15 -0.18,0.1 -0.27,0.26 -0.27,0.47 0,0.19 0.05,0.33 0.16,0.41 0.11,0.09 0.23,0.13 0.39,0.13 0.24,0 0.46,-0.07 0.67,-0.21 0.2,-0.14 0.31,-0.4 0.32,-0.77 v -0.42 z"
             id="path205" />
          <path
             class="st1"
             d="m 53.29,45.05 c 0.28,0.23 0.42,0.61 0.42,1.14 v 2.85 h -1.14 v -2.57 c 0,-0.22 -0.03,-0.39 -0.09,-0.51 -0.11,-0.22 -0.31,-0.33 -0.61,-0.33 -0.37,0 -0.62,0.16 -0.76,0.48 C 51.04,46.28 51,46.49 51,46.75 v 2.29 h -1.1 v -4.23 h 1.06 v 0.62 c 0.14,-0.22 0.28,-0.38 0.4,-0.47 0.23,-0.17 0.51,-0.26 0.86,-0.26 0.44,0 0.79,0.12 1.07,0.35 z"
             id="path207" />
          <path
             class="st1"
             d="m 57.15,46.3 c -0.02,-0.16 -0.07,-0.29 -0.16,-0.42 -0.12,-0.17 -0.32,-0.25 -0.58,-0.25 -0.37,0 -0.63,0.18 -0.76,0.55 -0.07,0.2 -0.11,0.46 -0.11,0.79 0,0.33 0.04,0.57 0.11,0.76 0.13,0.35 0.38,0.52 0.74,0.52 0.26,0 0.44,-0.07 0.55,-0.21 0.11,-0.14 0.17,-0.31 0.2,-0.53 h 1.14 c -0.03,0.33 -0.15,0.65 -0.36,0.95 -0.35,0.48 -0.86,0.72 -1.54,0.72 -0.68,0 -1.18,-0.2 -1.5,-0.6 -0.32,-0.4 -0.48,-0.93 -0.48,-1.57 0,-0.73 0.18,-1.3 0.53,-1.7 0.35,-0.4 0.84,-0.6 1.46,-0.6 0.53,0 0.96,0.12 1.3,0.35 0.34,0.23 0.54,0.65 0.6,1.25 h -1.14 z"
             id="path209" />
          <path
             class="st1"
             d="m 61.7,44.89 c 0.29,0.13 0.54,0.34 0.73,0.63 0.17,0.25 0.28,0.54 0.34,0.87 0.03,0.19 0.04,0.47 0.04,0.84 h -3.08 c 0.02,0.42 0.17,0.72 0.45,0.89 0.17,0.11 0.37,0.16 0.61,0.16 0.25,0 0.46,-0.06 0.62,-0.19 0.09,-0.07 0.16,-0.17 0.23,-0.29 h 1.11 c -0.03,0.25 -0.17,0.51 -0.41,0.77 -0.38,0.41 -0.91,0.62 -1.59,0.62 -0.56,0 -1.06,-0.17 -1.48,-0.52 -0.43,-0.35 -0.64,-0.91 -0.64,-1.69 0,-0.73 0.19,-1.29 0.58,-1.68 0.39,-0.39 0.89,-0.59 1.51,-0.59 0.37,0 0.7,0.07 0.99,0.2 z m -1.66,0.96 c -0.16,0.16 -0.26,0.37 -0.3,0.64 h 1.93 c -0.02,-0.29 -0.12,-0.5 -0.3,-0.65 -0.18,-0.15 -0.4,-0.22 -0.67,-0.22 -0.29,0 -0.51,0.08 -0.67,0.24 z"
             id="path211" />
          <path
             class="st1"
             d="m 68.9,48.51 c -0.36,0.44 -0.9,0.66 -1.63,0.66 -0.73,0 -1.27,-0.22 -1.63,-0.66 -0.36,-0.44 -0.54,-0.97 -0.54,-1.58 0,-0.61 0.18,-1.13 0.54,-1.58 0.36,-0.44 0.9,-0.67 1.63,-0.67 0.73,0 1.27,0.22 1.63,0.67 0.36,0.44 0.54,0.97 0.54,1.58 0,0.61 -0.18,1.14 -0.54,1.58 z M 68.02,47.9 c 0.17,-0.23 0.26,-0.55 0.26,-0.97 0,-0.42 -0.09,-0.75 -0.26,-0.97 -0.17,-0.23 -0.42,-0.34 -0.75,-0.34 -0.33,0 -0.58,0.11 -0.75,0.34 -0.18,0.23 -0.26,0.55 -0.26,0.97 0,0.42 0.09,0.75 0.26,0.97 0.18,0.23 0.43,0.34 0.75,0.34 0.32,0 0.58,-0.11 0.75,-0.34 z"
             id="path213" />
          <path
             class="st1"
             d="m 73.53,45.05 c 0.28,0.23 0.42,0.61 0.42,1.14 v 2.85 h -1.14 v -2.57 c 0,-0.22 -0.03,-0.39 -0.09,-0.51 -0.11,-0.22 -0.31,-0.33 -0.61,-0.33 -0.37,0 -0.62,0.16 -0.76,0.48 -0.07,0.17 -0.11,0.38 -0.11,0.64 v 2.29 h -1.1 v -4.23 h 1.06 v 0.62 c 0.14,-0.22 0.28,-0.38 0.4,-0.47 0.23,-0.17 0.51,-0.26 0.86,-0.26 0.44,0 0.79,0.12 1.07,0.35 z"
             id="path215" />
          <path
             class="st1"
             d="m 80.88,43.31 h 1.71 v 5.73 h -1.1 v -3.88 c 0,-0.11 0,-0.27 0,-0.47 0,-0.2 0,-0.36 0,-0.46 l -1.09,4.81 h -1.17 l -1.08,-4.81 c 0,0.11 0,0.26 0,0.46 0,0.2 0,0.36 0,0.47 v 3.88 h -1.1 v -5.73 h 1.73 l 1.04,4.51 1.04,-4.51 z"
             id="path217" />
          <path
             class="st1"
             d="m 86.25,44.89 c 0.29,0.13 0.54,0.34 0.73,0.63 0.17,0.25 0.28,0.54 0.34,0.87 0.03,0.19 0.04,0.47 0.04,0.84 h -3.08 c 0.02,0.42 0.17,0.72 0.45,0.89 0.17,0.11 0.37,0.16 0.61,0.16 0.25,0 0.46,-0.06 0.62,-0.19 0.09,-0.07 0.16,-0.17 0.23,-0.29 h 1.11 c -0.03,0.25 -0.17,0.51 -0.41,0.77 -0.38,0.41 -0.91,0.62 -1.59,0.62 -0.56,0 -1.06,-0.17 -1.48,-0.52 -0.43,-0.35 -0.64,-0.91 -0.64,-1.69 0,-0.73 0.19,-1.29 0.58,-1.68 0.39,-0.39 0.89,-0.59 1.51,-0.59 0.37,0 0.7,0.07 0.99,0.2 z m -1.67,0.96 c -0.16,0.16 -0.26,0.37 -0.3,0.64 h 1.93 c -0.02,-0.29 -0.12,-0.5 -0.3,-0.65 -0.18,-0.15 -0.4,-0.22 -0.67,-0.22 -0.29,0 -0.51,0.08 -0.67,0.24 z"
             id="path219" />
          <path
             class="st1"
             d="m 91.22,45.05 c 0.28,0.23 0.42,0.61 0.42,1.14 v 2.85 H 90.5 v -2.57 c 0,-0.22 -0.03,-0.39 -0.09,-0.51 -0.11,-0.22 -0.31,-0.33 -0.61,-0.33 -0.37,0 -0.62,0.16 -0.76,0.48 -0.07,0.17 -0.11,0.38 -0.11,0.64 v 2.29 h -1.1 v -4.23 h 1.06 v 0.62 c 0.14,-0.22 0.28,-0.38 0.4,-0.47 0.23,-0.17 0.51,-0.26 0.86,-0.26 0.44,0 0.79,0.12 1.07,0.35 z"
             id="path221" />
          <path
             class="st1"
             d="m 92.13,45.63 v -0.78 h 0.59 v -1.19 h 1.1 v 1.19 h 0.68 v 0.78 h -0.68 v 2.24 c 0,0.17 0.02,0.28 0.07,0.33 0.04,0.04 0.18,0.06 0.4,0.06 0.03,0 0.07,0 0.11,0 0.04,0 0.07,0 0.11,-0.01 v 0.83 H 93.98 C 93.46,49.11 93.1,49.02 92.91,48.82 92.79,48.69 92.72,48.5 92.72,48.23 v -2.61 h -0.59 z"
             id="path223" />
          <path
             class="st1"
             d="m 96.79,46.45 c 0.2,-0.03 0.35,-0.06 0.44,-0.1 0.16,-0.07 0.24,-0.17 0.24,-0.32 0,-0.17 -0.06,-0.29 -0.18,-0.36 -0.12,-0.07 -0.3,-0.1 -0.53,-0.1 -0.26,0 -0.45,0.06 -0.56,0.19 -0.08,0.1 -0.13,0.22 -0.16,0.39 h -1.07 c 0.02,-0.36 0.13,-0.66 0.31,-0.9 0.29,-0.37 0.79,-0.55 1.51,-0.55 0.46,0 0.87,0.09 1.23,0.27 0.36,0.18 0.54,0.52 0.54,1.04 v 1.95 c 0,0.14 0,0.3 0,0.49 0,0.15 0.03,0.25 0.07,0.3 0.04,0.05 0.09,0.1 0.16,0.13 v 0.16 h -1.2 c -0.03,-0.09 -0.06,-0.17 -0.07,-0.24 -0.01,-0.07 -0.02,-0.16 -0.03,-0.26 -0.15,0.17 -0.33,0.31 -0.53,0.42 -0.24,0.14 -0.51,0.21 -0.81,0.21 -0.38,0 -0.7,-0.11 -0.95,-0.33 -0.25,-0.22 -0.37,-0.53 -0.37,-0.94 0,-0.52 0.2,-0.9 0.6,-1.14 0.22,-0.13 0.54,-0.22 0.97,-0.27 l 0.38,-0.05 z m 0.67,0.51 c -0.07,0.04 -0.14,0.08 -0.21,0.11 -0.07,0.03 -0.17,0.05 -0.29,0.08 l -0.25,0.05 c -0.23,0.04 -0.4,0.09 -0.51,0.15 -0.18,0.1 -0.27,0.26 -0.27,0.47 0,0.19 0.05,0.33 0.16,0.41 0.11,0.09 0.23,0.13 0.39,0.13 0.24,0 0.46,-0.07 0.67,-0.21 0.2,-0.14 0.31,-0.4 0.32,-0.77 v -0.42 z"
             id="path225" />
          <path
             class="st1"
             d="m 100.53,49.04 h -1.1 v -5.72 h 1.1 z"
             id="path227" />
          <path
             class="st1"
             d="m 104.79,49.04 h -1.18 v -5.73 h 1.18 z"
             id="path229" />
          <path
             class="st1"
             d="m 106.85,49.04 h -1.1 v -5.72 h 1.1 z"
             id="path231" />
          <path
             class="st1"
             d="m 108.95,49.04 h -1.1 v -5.72 h 1.1 z"
             id="path233" />
          <path
             class="st1"
             d="m 113.35,45.05 c 0.28,0.23 0.42,0.61 0.42,1.14 v 2.85 h -1.14 v -2.57 c 0,-0.22 -0.03,-0.39 -0.09,-0.51 -0.11,-0.22 -0.31,-0.33 -0.61,-0.33 -0.37,0 -0.62,0.16 -0.76,0.48 -0.07,0.17 -0.11,0.38 -0.11,0.64 v 2.29 h -1.1 v -4.23 h 1.06 v 0.62 c 0.14,-0.22 0.28,-0.38 0.4,-0.47 0.23,-0.17 0.51,-0.26 0.86,-0.26 0.44,0 0.79,0.12 1.07,0.35 z"
             id="path235" />
          <path
             class="st1"
             d="m 117.45,44.89 c 0.29,0.13 0.54,0.34 0.73,0.63 0.17,0.25 0.28,0.54 0.34,0.87 0.03,0.19 0.04,0.47 0.04,0.84 h -3.08 c 0.02,0.42 0.17,0.72 0.45,0.89 0.17,0.11 0.37,0.16 0.61,0.16 0.25,0 0.46,-0.06 0.62,-0.19 0.09,-0.07 0.16,-0.17 0.23,-0.29 h 1.11 c -0.03,0.25 -0.17,0.51 -0.41,0.77 -0.38,0.41 -0.91,0.62 -1.59,0.62 -0.56,0 -1.06,-0.17 -1.48,-0.52 -0.43,-0.35 -0.64,-0.91 -0.64,-1.69 0,-0.73 0.19,-1.29 0.58,-1.68 0.39,-0.39 0.89,-0.59 1.51,-0.59 0.37,0 0.7,0.07 0.99,0.2 z m -1.67,0.96 c -0.16,0.16 -0.26,0.37 -0.3,0.64 h 1.93 c -0.02,-0.29 -0.12,-0.5 -0.3,-0.65 -0.18,-0.15 -0.4,-0.22 -0.67,-0.22 -0.29,0 -0.51,0.08 -0.67,0.24 z"
             id="path237" />
          <path
             class="st1"
             d="m 119.84,47.67 c 0.02,0.2 0.08,0.34 0.16,0.42 0.14,0.15 0.4,0.22 0.78,0.22 0.22,0 0.4,-0.03 0.53,-0.1 0.13,-0.06 0.2,-0.16 0.2,-0.29 0,-0.13 -0.05,-0.22 -0.16,-0.28 -0.11,-0.06 -0.5,-0.17 -1.17,-0.33 -0.49,-0.12 -0.82,-0.27 -1.02,-0.44 -0.19,-0.17 -0.29,-0.43 -0.29,-0.76 0,-0.39 0.15,-0.72 0.46,-1 0.31,-0.28 0.74,-0.42 1.3,-0.42 0.56,0 0.96,0.11 1.29,0.32 0.33,0.21 0.52,0.58 0.57,1.09 h -1.1 c -0.02,-0.14 -0.06,-0.26 -0.12,-0.34 -0.12,-0.15 -0.33,-0.23 -0.63,-0.23 -0.24,0 -0.42,0.04 -0.52,0.11 -0.1,0.07 -0.15,0.16 -0.15,0.26 0,0.13 0.05,0.22 0.16,0.28 0.11,0.06 0.5,0.16 1.16,0.3 0.44,0.1 0.77,0.26 0.99,0.47 0.21,0.21 0.32,0.48 0.32,0.79 0,0.42 -0.16,0.76 -0.47,1.03 -0.31,0.26 -0.79,0.4 -1.45,0.4 -0.66,0 -1.16,-0.14 -1.47,-0.42 -0.32,-0.28 -0.48,-0.64 -0.48,-1.08 h 1.1 z"
             id="path239" />
          <path
             class="st1"
             d="m 124.16,47.67 c 0.02,0.2 0.08,0.34 0.16,0.42 0.14,0.15 0.4,0.22 0.78,0.22 0.22,0 0.4,-0.03 0.53,-0.1 0.13,-0.06 0.2,-0.16 0.2,-0.29 0,-0.13 -0.05,-0.22 -0.16,-0.28 -0.11,-0.06 -0.5,-0.17 -1.17,-0.33 -0.49,-0.12 -0.82,-0.27 -1.02,-0.44 -0.19,-0.17 -0.29,-0.43 -0.29,-0.76 0,-0.39 0.15,-0.72 0.46,-1 0.31,-0.28 0.74,-0.42 1.3,-0.42 0.56,0 0.96,0.11 1.29,0.32 0.33,0.21 0.52,0.58 0.57,1.09 h -1.1 c -0.02,-0.14 -0.06,-0.26 -0.12,-0.34 -0.12,-0.15 -0.33,-0.23 -0.63,-0.23 -0.24,0 -0.42,0.04 -0.52,0.11 -0.1,0.07 -0.15,0.16 -0.15,0.26 0,0.13 0.05,0.22 0.16,0.28 0.11,0.06 0.5,0.16 1.16,0.3 0.44,0.1 0.77,0.26 0.99,0.47 0.21,0.21 0.32,0.48 0.32,0.79 0,0.42 -0.16,0.76 -0.47,1.03 -0.31,0.26 -0.79,0.4 -1.45,0.4 -0.66,0 -1.16,-0.14 -1.47,-0.42 -0.32,-0.28 -0.48,-0.64 -0.48,-1.08 h 1.1 z"
             id="path241" />
        </g>
        <g
           id="g307">
          <path
             class="st1"
             d="m 1.37,43.31 h 1.24 l 2.26,3.99 v -3.99 h 1.1 v 5.73 H 4.79 L 2.47,44.98 v 4.06 h -1.1 z"
             id="path245" />
          <path
             class="st1"
             d="m 8.6,46.45 c 0.2,-0.03 0.35,-0.06 0.44,-0.1 0.16,-0.07 0.24,-0.17 0.24,-0.32 0,-0.17 -0.06,-0.29 -0.18,-0.36 -0.12,-0.07 -0.3,-0.1 -0.53,-0.1 -0.26,0 -0.45,0.06 -0.56,0.19 -0.08,0.1 -0.13,0.22 -0.16,0.39 H 6.78 C 6.8,45.79 6.91,45.49 7.09,45.25 7.38,44.88 7.88,44.7 8.6,44.7 c 0.46,0 0.87,0.09 1.23,0.27 0.36,0.18 0.54,0.52 0.54,1.04 v 1.95 c 0,0.14 0,0.3 0,0.49 0,0.15 0.03,0.25 0.07,0.3 0.04,0.05 0.09,0.1 0.16,0.13 v 0.16 H 9.4 C 9.37,48.95 9.34,48.87 9.33,48.8 9.32,48.73 9.31,48.64 9.3,48.54 9.15,48.71 8.97,48.85 8.77,48.96 8.53,49.1 8.26,49.17 7.96,49.17 7.58,49.17 7.26,49.06 7.01,48.84 6.76,48.62 6.64,48.31 6.64,47.9 c 0,-0.52 0.2,-0.9 0.6,-1.14 0.22,-0.13 0.54,-0.22 0.97,-0.27 l 0.38,-0.05 z m 0.67,0.51 C 9.2,47 9.13,47.04 9.06,47.07 8.99,47.1 8.89,47.12 8.77,47.15 L 8.52,47.2 c -0.23,0.04 -0.4,0.09 -0.51,0.15 -0.18,0.1 -0.27,0.26 -0.27,0.47 0,0.19 0.05,0.33 0.16,0.41 0.11,0.09 0.23,0.13 0.39,0.13 0.24,0 0.46,-0.07 0.67,-0.21 0.2,-0.14 0.31,-0.4 0.32,-0.77 v -0.42 z"
             id="path247" />
          <path
             class="st1"
             d="m 10.8,45.63 v -0.78 h 0.59 v -1.19 h 1.1 v 1.19 h 0.68 v 0.78 h -0.68 v 2.24 c 0,0.17 0.02,0.28 0.07,0.33 0.04,0.04 0.18,0.06 0.4,0.06 0.03,0 0.07,0 0.11,0 0.04,0 0.07,0 0.11,-0.01 v 0.83 H 12.65 C 12.13,49.11 11.77,49.02 11.58,48.82 11.46,48.69 11.39,48.5 11.39,48.23 V 45.62 H 10.8 Z"
             id="path249" />
          <path
             class="st1"
             d="m 14.89,44.3 h -1.1 v -1.02 h 1.1 z m -1.1,0.5 h 1.1 v 4.24 h -1.1 z"
             id="path251" />
          <path
             class="st1"
             d="m 19.41,48.51 c -0.36,0.44 -0.9,0.66 -1.63,0.66 -0.73,0 -1.27,-0.22 -1.63,-0.66 -0.36,-0.44 -0.54,-0.97 -0.54,-1.58 0,-0.61 0.18,-1.13 0.54,-1.58 0.36,-0.44 0.9,-0.67 1.63,-0.67 0.73,0 1.27,0.22 1.63,0.67 0.36,0.44 0.54,0.97 0.54,1.58 0,0.61 -0.18,1.14 -0.54,1.58 z M 18.53,47.9 c 0.17,-0.23 0.26,-0.55 0.26,-0.97 0,-0.42 -0.09,-0.75 -0.26,-0.97 -0.17,-0.23 -0.42,-0.34 -0.75,-0.34 -0.33,0 -0.58,0.11 -0.75,0.34 -0.17,0.23 -0.26,0.55 -0.26,0.97 0,0.42 0.09,0.75 0.26,0.97 0.18,0.23 0.43,0.34 0.75,0.34 0.32,0 0.58,-0.11 0.75,-0.34 z"
             id="path253" />
          <path
             class="st1"
             d="m 24.04,45.05 c 0.28,0.23 0.42,0.61 0.42,1.14 v 2.85 h -1.14 v -2.57 c 0,-0.22 -0.03,-0.39 -0.09,-0.51 -0.11,-0.22 -0.31,-0.33 -0.61,-0.33 -0.37,0 -0.62,0.16 -0.76,0.48 -0.07,0.17 -0.11,0.38 -0.11,0.64 v 2.29 h -1.1 v -4.23 h 1.06 v 0.62 c 0.14,-0.22 0.28,-0.38 0.4,-0.47 0.23,-0.17 0.51,-0.26 0.86,-0.26 0.44,0 0.79,0.12 1.07,0.35 z"
             id="path255" />
          <path
             class="st1"
             d="m 27.06,46.45 c 0.2,-0.03 0.35,-0.06 0.44,-0.1 0.16,-0.07 0.24,-0.17 0.24,-0.32 0,-0.17 -0.06,-0.29 -0.18,-0.36 -0.12,-0.07 -0.3,-0.1 -0.53,-0.1 -0.26,0 -0.45,0.06 -0.56,0.19 -0.08,0.1 -0.13,0.22 -0.16,0.39 h -1.07 c 0.02,-0.36 0.13,-0.66 0.31,-0.9 0.29,-0.37 0.79,-0.55 1.51,-0.55 0.46,0 0.87,0.09 1.23,0.27 0.36,0.18 0.54,0.52 0.54,1.04 v 1.95 c 0,0.14 0,0.3 0,0.49 0,0.15 0.03,0.25 0.07,0.3 0.04,0.05 0.09,0.1 0.16,0.13 v 0.16 h -1.2 c -0.03,-0.09 -0.06,-0.17 -0.07,-0.24 -0.01,-0.07 -0.02,-0.16 -0.03,-0.26 -0.15,0.17 -0.33,0.31 -0.53,0.42 -0.24,0.14 -0.51,0.21 -0.81,0.21 -0.38,0 -0.7,-0.11 -0.95,-0.33 -0.25,-0.22 -0.37,-0.53 -0.37,-0.94 0,-0.52 0.2,-0.9 0.6,-1.14 0.22,-0.13 0.54,-0.22 0.97,-0.27 l 0.38,-0.05 z m 0.68,0.51 c -0.07,0.04 -0.14,0.08 -0.21,0.11 -0.07,0.03 -0.17,0.05 -0.29,0.08 l -0.25,0.05 c -0.23,0.04 -0.4,0.09 -0.51,0.15 -0.18,0.1 -0.27,0.26 -0.27,0.47 0,0.19 0.05,0.33 0.16,0.41 0.11,0.09 0.23,0.13 0.39,0.13 0.24,0 0.46,-0.07 0.67,-0.21 0.2,-0.14 0.31,-0.4 0.32,-0.77 v -0.42 z"
             id="path257" />
          <path
             class="st1"
             d="m 30.81,49.04 h -1.1 v -5.72 h 1.1 z"
             id="path259" />
          <path
             class="st1"
             d="m 35.34,43.31 h 1.34 l 2.02,5.73 h -1.29 l -0.37,-1.17 h -2.11 l -0.38,1.17 h -1.24 l 2.04,-5.73 z m -0.08,3.57 h 1.46 L 36,44.62 Z"
             id="path261" />
          <path
             class="st1"
             d="m 40.36,49.04 h -1.1 v -5.72 h 1.1 z"
             id="path263" />
          <path
             class="st1"
             d="m 42.47,49.04 h -1.1 v -5.72 h 1.1 z"
             id="path265" />
          <path
             class="st1"
             d="m 44.57,44.3 h -1.1 v -1.02 h 1.1 z m -1.1,0.5 h 1.1 v 4.24 h -1.1 z"
             id="path267" />
          <path
             class="st1"
             d="m 47.25,46.45 c 0.2,-0.03 0.35,-0.06 0.44,-0.1 0.16,-0.07 0.24,-0.17 0.24,-0.32 0,-0.17 -0.06,-0.29 -0.18,-0.36 -0.12,-0.07 -0.3,-0.1 -0.53,-0.1 -0.26,0 -0.45,0.06 -0.56,0.19 -0.08,0.1 -0.13,0.22 -0.16,0.39 h -1.07 c 0.02,-0.36 0.13,-0.66 0.31,-0.9 0.29,-0.37 0.79,-0.55 1.51,-0.55 0.46,0 0.87,0.09 1.23,0.27 0.36,0.18 0.54,0.52 0.54,1.04 v 1.95 c 0,0.14 0,0.3 0,0.49 0,0.15 0.03,0.25 0.07,0.3 0.04,0.05 0.09,0.1 0.16,0.13 v 0.16 h -1.2 c -0.03,-0.09 -0.06,-0.17 -0.07,-0.24 -0.01,-0.07 -0.02,-0.16 -0.03,-0.26 -0.15,0.17 -0.33,0.31 -0.53,0.42 -0.24,0.14 -0.51,0.21 -0.81,0.21 -0.38,0 -0.7,-0.11 -0.95,-0.33 -0.25,-0.22 -0.37,-0.53 -0.37,-0.94 0,-0.52 0.2,-0.9 0.6,-1.14 0.22,-0.13 0.54,-0.22 0.97,-0.27 l 0.38,-0.05 z m 0.67,0.51 c -0.07,0.04 -0.14,0.08 -0.21,0.11 -0.07,0.03 -0.17,0.05 -0.29,0.08 l -0.25,0.05 c -0.23,0.04 -0.4,0.09 -0.51,0.15 -0.18,0.1 -0.27,0.26 -0.27,0.47 0,0.19 0.05,0.33 0.16,0.41 0.11,0.09 0.23,0.13 0.39,0.13 0.24,0 0.46,-0.07 0.67,-0.21 0.2,-0.14 0.31,-0.4 0.32,-0.77 v -0.42 z"
             id="path269" />
          <path
             class="st1"
             d="m 53.29,45.05 c 0.28,0.23 0.42,0.61 0.42,1.14 v 2.85 h -1.14 v -2.57 c 0,-0.22 -0.03,-0.39 -0.09,-0.51 -0.11,-0.22 -0.31,-0.33 -0.61,-0.33 -0.37,0 -0.62,0.16 -0.76,0.48 C 51.04,46.28 51,46.49 51,46.75 v 2.29 h -1.1 v -4.23 h 1.06 v 0.62 c 0.14,-0.22 0.28,-0.38 0.4,-0.47 0.23,-0.17 0.51,-0.26 0.86,-0.26 0.44,0 0.79,0.12 1.07,0.35 z"
             id="path271" />
          <path
             class="st1"
             d="m 57.15,46.3 c -0.02,-0.16 -0.07,-0.29 -0.16,-0.42 -0.12,-0.17 -0.32,-0.25 -0.58,-0.25 -0.37,0 -0.63,0.18 -0.76,0.55 -0.07,0.2 -0.11,0.46 -0.11,0.79 0,0.33 0.04,0.57 0.11,0.76 0.13,0.35 0.38,0.52 0.74,0.52 0.26,0 0.44,-0.07 0.55,-0.21 0.11,-0.14 0.17,-0.31 0.2,-0.53 h 1.14 c -0.03,0.33 -0.15,0.65 -0.36,0.95 -0.35,0.48 -0.86,0.72 -1.54,0.72 -0.68,0 -1.18,-0.2 -1.5,-0.6 -0.32,-0.4 -0.48,-0.93 -0.48,-1.57 0,-0.73 0.18,-1.3 0.53,-1.7 0.35,-0.4 0.84,-0.6 1.46,-0.6 0.53,0 0.96,0.12 1.3,0.35 0.34,0.23 0.54,0.65 0.6,1.25 h -1.14 z"
             id="path273" />
          <path
             class="st1"
             d="m 61.7,44.89 c 0.29,0.13 0.54,0.34 0.73,0.63 0.17,0.25 0.28,0.54 0.34,0.87 0.03,0.19 0.04,0.47 0.04,0.84 h -3.08 c 0.02,0.42 0.17,0.72 0.45,0.89 0.17,0.11 0.37,0.16 0.61,0.16 0.25,0 0.46,-0.06 0.62,-0.19 0.09,-0.07 0.16,-0.17 0.23,-0.29 h 1.11 c -0.03,0.25 -0.17,0.51 -0.41,0.77 -0.38,0.41 -0.91,0.62 -1.59,0.62 -0.56,0 -1.06,-0.17 -1.48,-0.52 -0.43,-0.35 -0.64,-0.91 -0.64,-1.69 0,-0.73 0.19,-1.29 0.58,-1.68 0.39,-0.39 0.89,-0.59 1.51,-0.59 0.37,0 0.7,0.07 0.99,0.2 z m -1.66,0.96 c -0.16,0.16 -0.26,0.37 -0.3,0.64 h 1.93 c -0.02,-0.29 -0.12,-0.5 -0.3,-0.65 -0.18,-0.15 -0.4,-0.22 -0.67,-0.22 -0.29,0 -0.51,0.08 -0.67,0.24 z"
             id="path275" />
          <path
             class="st1"
             d="m 68.9,48.51 c -0.36,0.44 -0.9,0.66 -1.63,0.66 -0.73,0 -1.27,-0.22 -1.63,-0.66 -0.36,-0.44 -0.54,-0.97 -0.54,-1.58 0,-0.61 0.18,-1.13 0.54,-1.58 0.36,-0.44 0.9,-0.67 1.63,-0.67 0.73,0 1.27,0.22 1.63,0.67 0.36,0.44 0.54,0.97 0.54,1.58 0,0.61 -0.18,1.14 -0.54,1.58 z M 68.02,47.9 c 0.17,-0.23 0.26,-0.55 0.26,-0.97 0,-0.42 -0.09,-0.75 -0.26,-0.97 -0.17,-0.23 -0.42,-0.34 -0.75,-0.34 -0.33,0 -0.58,0.11 -0.75,0.34 -0.18,0.23 -0.26,0.55 -0.26,0.97 0,0.42 0.09,0.75 0.26,0.97 0.18,0.23 0.43,0.34 0.75,0.34 0.32,0 0.58,-0.11 0.75,-0.34 z"
             id="path277" />
          <path
             class="st1"
             d="m 73.53,45.05 c 0.28,0.23 0.42,0.61 0.42,1.14 v 2.85 h -1.14 v -2.57 c 0,-0.22 -0.03,-0.39 -0.09,-0.51 -0.11,-0.22 -0.31,-0.33 -0.61,-0.33 -0.37,0 -0.62,0.16 -0.76,0.48 -0.07,0.17 -0.11,0.38 -0.11,0.64 v 2.29 h -1.1 v -4.23 h 1.06 v 0.62 c 0.14,-0.22 0.28,-0.38 0.4,-0.47 0.23,-0.17 0.51,-0.26 0.86,-0.26 0.44,0 0.79,0.12 1.07,0.35 z"
             id="path279" />
          <path
             class="st1"
             d="m 80.88,43.31 h 1.71 v 5.73 h -1.1 v -3.88 c 0,-0.11 0,-0.27 0,-0.47 0,-0.2 0,-0.36 0,-0.46 l -1.09,4.81 h -1.17 l -1.08,-4.81 c 0,0.11 0,0.26 0,0.46 0,0.2 0,0.36 0,0.47 v 3.88 h -1.1 v -5.73 h 1.73 l 1.04,4.51 1.04,-4.51 z"
             id="path281" />
          <path
             class="st1"
             d="m 86.25,44.89 c 0.29,0.13 0.54,0.34 0.73,0.63 0.17,0.25 0.28,0.54 0.34,0.87 0.03,0.19 0.04,0.47 0.04,0.84 h -3.08 c 0.02,0.42 0.17,0.72 0.45,0.89 0.17,0.11 0.37,0.16 0.61,0.16 0.25,0 0.46,-0.06 0.62,-0.19 0.09,-0.07 0.16,-0.17 0.23,-0.29 h 1.11 c -0.03,0.25 -0.17,0.51 -0.41,0.77 -0.38,0.41 -0.91,0.62 -1.59,0.62 -0.56,0 -1.06,-0.17 -1.48,-0.52 -0.43,-0.35 -0.64,-0.91 -0.64,-1.69 0,-0.73 0.19,-1.29 0.58,-1.68 0.39,-0.39 0.89,-0.59 1.51,-0.59 0.37,0 0.7,0.07 0.99,0.2 z m -1.67,0.96 c -0.16,0.16 -0.26,0.37 -0.3,0.64 h 1.93 c -0.02,-0.29 -0.12,-0.5 -0.3,-0.65 -0.18,-0.15 -0.4,-0.22 -0.67,-0.22 -0.29,0 -0.51,0.08 -0.67,0.24 z"
             id="path283" />
          <path
             class="st1"
             d="m 91.22,45.05 c 0.28,0.23 0.42,0.61 0.42,1.14 v 2.85 H 90.5 v -2.57 c 0,-0.22 -0.03,-0.39 -0.09,-0.51 -0.11,-0.22 -0.31,-0.33 -0.61,-0.33 -0.37,0 -0.62,0.16 -0.76,0.48 -0.07,0.17 -0.11,0.38 -0.11,0.64 v 2.29 h -1.1 v -4.23 h 1.06 v 0.62 c 0.14,-0.22 0.28,-0.38 0.4,-0.47 0.23,-0.17 0.51,-0.26 0.86,-0.26 0.44,0 0.79,0.12 1.07,0.35 z"
             id="path285" />
          <path
             class="st1"
             d="m 92.13,45.63 v -0.78 h 0.59 v -1.19 h 1.1 v 1.19 h 0.68 v 0.78 h -0.68 v 2.24 c 0,0.17 0.02,0.28 0.07,0.33 0.04,0.04 0.18,0.06 0.4,0.06 0.03,0 0.07,0 0.11,0 0.04,0 0.07,0 0.11,-0.01 v 0.83 H 93.98 C 93.46,49.11 93.1,49.02 92.91,48.82 92.79,48.69 92.72,48.5 92.72,48.23 v -2.61 h -0.59 z"
             id="path287" />
          <path
             class="st1"
             d="m 96.79,46.45 c 0.2,-0.03 0.35,-0.06 0.44,-0.1 0.16,-0.07 0.24,-0.17 0.24,-0.32 0,-0.17 -0.06,-0.29 -0.18,-0.36 -0.12,-0.07 -0.3,-0.1 -0.53,-0.1 -0.26,0 -0.45,0.06 -0.56,0.19 -0.08,0.1 -0.13,0.22 -0.16,0.39 h -1.07 c 0.02,-0.36 0.13,-0.66 0.31,-0.9 0.29,-0.37 0.79,-0.55 1.51,-0.55 0.46,0 0.87,0.09 1.23,0.27 0.36,0.18 0.54,0.52 0.54,1.04 v 1.95 c 0,0.14 0,0.3 0,0.49 0,0.15 0.03,0.25 0.07,0.3 0.04,0.05 0.09,0.1 0.16,0.13 v 0.16 h -1.2 c -0.03,-0.09 -0.06,-0.17 -0.07,-0.24 -0.01,-0.07 -0.02,-0.16 -0.03,-0.26 -0.15,0.17 -0.33,0.31 -0.53,0.42 -0.24,0.14 -0.51,0.21 -0.81,0.21 -0.38,0 -0.7,-0.11 -0.95,-0.33 -0.25,-0.22 -0.37,-0.53 -0.37,-0.94 0,-0.52 0.2,-0.9 0.6,-1.14 0.22,-0.13 0.54,-0.22 0.97,-0.27 l 0.38,-0.05 z m 0.67,0.51 c -0.07,0.04 -0.14,0.08 -0.21,0.11 -0.07,0.03 -0.17,0.05 -0.29,0.08 l -0.25,0.05 c -0.23,0.04 -0.4,0.09 -0.51,0.15 -0.18,0.1 -0.27,0.26 -0.27,0.47 0,0.19 0.05,0.33 0.16,0.41 0.11,0.09 0.23,0.13 0.39,0.13 0.24,0 0.46,-0.07 0.67,-0.21 0.2,-0.14 0.31,-0.4 0.32,-0.77 v -0.42 z"
             id="path289" />
          <path
             class="st1"
             d="m 100.53,49.04 h -1.1 v -5.72 h 1.1 z"
             id="path291" />
          <path
             class="st1"
             d="m 104.79,49.04 h -1.18 v -5.73 h 1.18 z"
             id="path293" />
          <path
             class="st1"
             d="m 106.85,49.04 h -1.1 v -5.72 h 1.1 z"
             id="path295" />
          <path
             class="st1"
             d="m 108.95,49.04 h -1.1 v -5.72 h 1.1 z"
             id="path297" />
          <path
             class="st1"
             d="m 113.35,45.05 c 0.28,0.23 0.42,0.61 0.42,1.14 v 2.85 h -1.14 v -2.57 c 0,-0.22 -0.03,-0.39 -0.09,-0.51 -0.11,-0.22 -0.31,-0.33 -0.61,-0.33 -0.37,0 -0.62,0.16 -0.76,0.48 -0.07,0.17 -0.11,0.38 -0.11,0.64 v 2.29 h -1.1 v -4.23 h 1.06 v 0.62 c 0.14,-0.22 0.28,-0.38 0.4,-0.47 0.23,-0.17 0.51,-0.26 0.86,-0.26 0.44,0 0.79,0.12 1.07,0.35 z"
             id="path299" />
          <path
             class="st1"
             d="m 117.45,44.89 c 0.29,0.13 0.54,0.34 0.73,0.63 0.17,0.25 0.28,0.54 0.34,0.87 0.03,0.19 0.04,0.47 0.04,0.84 h -3.08 c 0.02,0.42 0.17,0.72 0.45,0.89 0.17,0.11 0.37,0.16 0.61,0.16 0.25,0 0.46,-0.06 0.62,-0.19 0.09,-0.07 0.16,-0.17 0.23,-0.29 h 1.11 c -0.03,0.25 -0.17,0.51 -0.41,0.77 -0.38,0.41 -0.91,0.62 -1.59,0.62 -0.56,0 -1.06,-0.17 -1.48,-0.52 -0.43,-0.35 -0.64,-0.91 -0.64,-1.69 0,-0.73 0.19,-1.29 0.58,-1.68 0.39,-0.39 0.89,-0.59 1.51,-0.59 0.37,0 0.7,0.07 0.99,0.2 z m -1.67,0.96 c -0.16,0.16 -0.26,0.37 -0.3,0.64 h 1.93 c -0.02,-0.29 -0.12,-0.5 -0.3,-0.65 -0.18,-0.15 -0.4,-0.22 -0.67,-0.22 -0.29,0 -0.51,0.08 -0.67,0.24 z"
             id="path301" />
          <path
             class="st1"
             d="m 119.84,47.67 c 0.02,0.2 0.08,0.34 0.16,0.42 0.14,0.15 0.4,0.22 0.78,0.22 0.22,0 0.4,-0.03 0.53,-0.1 0.13,-0.06 0.2,-0.16 0.2,-0.29 0,-0.13 -0.05,-0.22 -0.16,-0.28 -0.11,-0.06 -0.5,-0.17 -1.17,-0.33 -0.49,-0.12 -0.82,-0.27 -1.02,-0.44 -0.19,-0.17 -0.29,-0.43 -0.29,-0.76 0,-0.39 0.15,-0.72 0.46,-1 0.31,-0.28 0.74,-0.42 1.3,-0.42 0.56,0 0.96,0.11 1.29,0.32 0.33,0.21 0.52,0.58 0.57,1.09 h -1.1 c -0.02,-0.14 -0.06,-0.26 -0.12,-0.34 -0.12,-0.15 -0.33,-0.23 -0.63,-0.23 -0.24,0 -0.42,0.04 -0.52,0.11 -0.1,0.07 -0.15,0.16 -0.15,0.26 0,0.13 0.05,0.22 0.16,0.28 0.11,0.06 0.5,0.16 1.16,0.3 0.44,0.1 0.77,0.26 0.99,0.47 0.21,0.21 0.32,0.48 0.32,0.79 0,0.42 -0.16,0.76 -0.47,1.03 -0.31,0.26 -0.79,0.4 -1.45,0.4 -0.66,0 -1.16,-0.14 -1.47,-0.42 -0.32,-0.28 -0.48,-0.64 -0.48,-1.08 h 1.1 z"
             id="path303" />
          <path
             class="st1"
             d="m 124.16,47.67 c 0.02,0.2 0.08,0.34 0.16,0.42 0.14,0.15 0.4,0.22 0.78,0.22 0.22,0 0.4,-0.03 0.53,-0.1 0.13,-0.06 0.2,-0.16 0.2,-0.29 0,-0.13 -0.05,-0.22 -0.16,-0.28 -0.11,-0.06 -0.5,-0.17 -1.17,-0.33 -0.49,-0.12 -0.82,-0.27 -1.02,-0.44 -0.19,-0.17 -0.29,-0.43 -0.29,-0.76 0,-0.39 0.15,-0.72 0.46,-1 0.31,-0.28 0.74,-0.42 1.3,-0.42 0.56,0 0.96,0.11 1.29,0.32 0.33,0.21 0.52,0.58 0.57,1.09 h -1.1 c -0.02,-0.14 -0.06,-0.26 -0.12,-0.34 -0.12,-0.15 -0.33,-0.23 -0.63,-0.23 -0.24,0 -0.42,0.04 -0.52,0.11 -0.1,0.07 -0.15,0.16 -0.15,0.26 0,0.13 0.05,0.22 0.16,0.28 0.11,0.06 0.5,0.16 1.16,0.3 0.44,0.1 0.77,0.26 0.99,0.47 0.21,0.21 0.32,0.48 0.32,0.79 0,0.42 -0.16,0.76 -0.47,1.03 -0.31,0.26 -0.79,0.4 -1.45,0.4 -0.66,0 -1.16,-0.14 -1.47,-0.42 -0.32,-0.28 -0.48,-0.64 -0.48,-1.08 h 1.1 z"
             id="path305" />
        </g>
      </g>
    </g>
    <rect
       class="st0"
       width="128"
       height="50"
       id="rect313"
       x="0"
       y="0" />
  </g>
</svg>
